<?xml version="1.0" encoding="UTF-8"?>
<svg width="1041px" height="993px" viewBox="0 0 1041 993" version="1.1" xmlns="http://www.w3.org/2000/svg" xmlns:xlink="http://www.w3.org/1999/xlink">
    <!-- Generator: Sketch 50.2 (55047) - http://www.bohemiancoding.com/sketch -->
    <title>Artboard 3</title>
    <desc>Created with Sketch.</desc>
    <defs></defs>
    <g id="Artboard-3" stroke="none" stroke-width="1" fill="none" fill-rule="evenodd">
        <g id="bubbles" transform="translate(565.383034, 463.310180) rotate(-345.000000) translate(-565.383034, -463.310180) translate(56.883034, 14.310180)" fill="#6EA5EB">
            <ellipse id="Oval-3" cx="244.06412" cy="500.771201" rx="81.3547067" ry="80.8050127"></ellipse>
            <ellipse id="Oval-3-Copy-5" cx="916.889532" cy="451.298744" rx="81.3547067" ry="80.8050127"></ellipse>
            <ellipse id="Oval-3-Copy-6" cx="406.773533" cy="80.8050127" rx="81.3547067" ry="80.8050127"></ellipse>
            <ellipse id="Oval-4" cx="465.590788" cy="334.21393" rx="173.153599" ry="172.603905"></ellipse>
            <ellipse id="Oval-3-Copy" cx="737.6893" cy="404.025064" rx="81.3547067" ry="80.8050127"></ellipse>
            <ellipse id="Oval-3-Copy-2" cx="647.53949" cy="553.541822" rx="81.3547067" ry="80.8050127"></ellipse>
            <circle id="Oval-3-Copy-3" cx="430.410374" cy="683.269597" r="157.762168"></circle>
            <circle id="Oval-3-Copy-4" cx="859.171666" cy="739.338382" r="157.762168"></circle>
            <circle id="Oval-5" cx="792.109002" cy="533.752839" r="42.3264352"></circle>
            <circle id="Oval-5-Copy" cx="231.421159" cy="362.248322" r="42.3264352"></circle>
            <circle id="Oval-5-Copy-4" cx="264.402797" cy="842.680847" r="42.3264352"></circle>
            <circle id="Oval-5-Copy-7" cx="646.989796" cy="718.450011" r="42.3264352"></circle>
            <circle id="Oval-5-Copy-5" cx="564.535701" cy="126.979306" r="42.3264352"></circle>
            <circle id="Oval-5-Copy-6" cx="111.587875" cy="538.150391" r="42.3264352"></circle>
            <circle id="Oval-5-Copy-2" cx="738.238994" cy="176.451762" r="122.581754"></circle>
            <circle id="Oval-5-Copy-3" cx="122.581754" cy="718.450011" r="122.581754"></circle>
        </g>
    </g>
</svg>